# xmcd
# 
# Track frame offsets:
#   150
#   16076
#   24782
#   34722
#   45815
#   53013
#   61516
#   69686
#   76795
#   88385
#   96352
#   102451
#   111420
#   120016
#   127613
#   138858
#   146443
#   157075
#   163212
#   171256
# 
# Disc length: 2370 seconds
# 
# Revision: 1
# Processed by: cddbd v1.4PL0 Copyright (c) Steve Scherf et al.
# Submitted via: VOLTOCDX V1.0.22 
# 
DISCID=f3094014
DTITLE=Heads, Shoulders, Knees and Toes - Heads, Shoulders, Knees and Toes
DYEAR=2002
DGENRE=country
TTITLE0=Heads, shoulders, knees and toes
TTITLE1=Underneath the spreading chestnut tree
TTITLE2=Put your finger on your head 
TTITLE3=Hokey cokey 
TTITLE4=I went to school this morning 
TTITLE5=Johnny taps with one hammer 
TTITLE6=My hat it has three corners 
TTITLE7=A sailor went to sea, sea, sea 
TTITLE8=Ten green bottles
TTITLE9=One finger, one thumb keep moving 
TTITLE10=The bear went over the mountain 
TTITLE11=Chip chop, chip chop, chipper chopper Joe 
TTITLE12=Looby Lou
TTITLE13=Ten in a bed 
TTITLE14=We all clap hands together 
TTITLE15=John Brown's baby 
TTITLE16=If you're happy and you know it 
TTITLE17=Bobbing up and down like this 
TTITLE18=John Brown stamped his feet 
TTITLE19=Here we go round the mulberry bush
EXTD=
EXTT0=
EXTT1=
EXTT2=
EXTT3=
EXTT4=
EXTT5=
EXTT6=
EXTT7=
EXTT8=
EXTT9=
EXTT10=
EXTT11=
EXTT12=
EXTT13=
EXTT14=
EXTT15=
EXTT16=
EXTT17=
EXTT18=
EXTT19=
PLAYORDER=
